Coordinates
version=1
nRows=30
nColumns=34
inDegrees=no

Units are S.I. units (second, meters, Newtons, ...)
If the header above contains a line with 'inDegrees', this indicates whether rotational values are in degrees (yes) or radians (no).

endheader
time	pelvis_tilt	pelvis_list	pelvis_rotation	pelvis_tx	pelvis_ty	pelvis_tz	hip_flexion_r	hip_adduction_r	hip_rotation_r	knee_angle_r	ankle_angle_r	subtalar_angle_r	mtp_angle_r	hip_flexion_l	hip_adduction_l	hip_rotation_l	knee_angle_l	ankle_angle_l	subtalar_angle_l	mtp_angle_l	lumbar_extension	lumbar_bending	lumbar_rotation	arm_flex_r	arm_add_r	arm_rot_r	elbow_flex_r	pro_sup_r	arm_flex_l	arm_add_l	arm_rot_l	elbow_flex_l	pro_sup_l
0.85	0.0538482	0.0226966	-0.0571762	1.00582	0.967197	-0.235243	0.472824	-0.073143	-0.114643	0.616491	0.0158625	0.0102755	-0.000956945	-0.0958943	-0.00418672	-0.15303	0.259933	0.298628	0.0248294	-0.00526488	-0.189752	-0.2525	-0.0862857	-0.0179594	-0.260876	0.0130621	0.921763	1.89369	0.234003	-0.270515	-0.0327587	0.708786	1.92896
0.86	0.0497661	0.0195386	-0.0566022	1.01689	0.966632	-0.23498	0.46969	-0.0692809	-0.126408	0.544944	0.0184298	0.0352926	-0.00101704	-0.114022	-0.00571837	-0.154297	0.242601	0.3015	0.0323711	-0.00531352	-0.185857	-0.243012	-0.0934535	-0.0267684	-0.262236	0.00644388	0.924809	1.88878	0.236214	-0.274266	-0.0226714	0.72626	1.92971
0.87	0.046262	0.0175775	-0.0564771	1.02798	0.965766	-0.234629	0.465591	-0.0659719	-0.135224	0.47359	0.0226464	0.0641571	-0.00107712	-0.132927	-0.00595591	-0.156041	0.224881	0.304574	0.0404148	-0.00536221	-0.182689	-0.234914	-0.100028	-0.0350065	-0.263519	-0.000321889	0.927817	1.88353	0.239112	-0.278773	-0.0119715	0.74322	1.93077
0.88	0.0435835	0.0165754	-0.0568538	1.03911	0.964636	-0.234181	0.460318	-0.0630178	-0.140513	0.403213	0.0282434	0.0953171	-0.0011372	-0.152987	-0.00512166	-0.158258	0.206632	0.307689	0.0490154	-0.00541094	-0.18051	-0.22797	-0.105919	-0.0425125	-0.264698	-0.00715513	0.930507	1.87822	0.242757	-0.283887	-0.000780002	0.759472	1.93171
0.89	0.0418846	0.0162494	-0.0577217	1.05029	0.963281	-0.23363	0.453793	-0.0602548	-0.141898	0.334839	0.0348745	0.126873	-0.00119725	-0.174349	-0.00351424	-0.160918	0.187955	0.310706	0.0581657	-0.0054597	-0.1795	-0.221873	-0.111086	-0.04915	-0.265765	-0.01399	0.932619	1.87316	0.247185	-0.289435	0.0107985	0.774808	1.93207
0.9	0.0412073	0.0163107	-0.0590012	1.06154	0.961738	-0.232974	0.446127	-0.0575844	-0.139314	0.269766	0.0421731	0.156744	-0.0012573	-0.196896	-0.0014729	-0.163972	0.169206	0.313537	0.067799	-0.00550851	-0.179728	-0.216291	-0.115547	-0.0548172	-0.266728	-0.020779	0.933933	1.86857	0.2524	-0.29522	0.0226651	0.789004	1.93145
0.91	0.0414781	0.016496	-0.0605467	1.07285	0.960037	-0.232216	0.437647	-0.0549877	-0.133081	0.20956	0.0497935	0.182896	-0.00131733	-0.220255	0.000653754	-0.167363	0.150964	0.316163	0.0778041	-0.00555736	-0.181147	-0.2109	-0.119378	-0.0594537	-0.2676	-0.0274948	0.934275	1.86462	0.258366	-0.301043	0.0347111	0.801824	1.92959
0.92	0.0425214	0.0165853	-0.0621599	1.08424	0.958212	-0.231367	0.42888	-0.052513	-0.123945	0.155965	0.0574234	0.20358	-0.00137736	-0.243855	0.00252778	-0.171035	0.133967	0.318631	0.0880472	-0.00560625	-0.183606	-0.205406	-0.1227	-0.0630438	-0.268396	-0.0341301	0.933528	1.86136	0.265002	-0.306702	0.0468032	0.813046	1.92644
0.93	0.0440917	0.0164002	-0.0636108	1.09569	0.95629	-0.230439	0.420488	-0.0502399	-0.113034	0.110745	0.0647587	0.217557	-0.00143737	-0.267006	0.00382725	-0.174953	0.119027	0.321037	0.0983943	-0.00565517	-0.186874	-0.19955	-0.125662	-0.0656155	-0.269131	-0.0406936	0.931633	1.85878	0.272175	-0.312005	0.058771	0.822478	1.92217
0.94	0.0459173	0.015786	-0.0646631	1.1072	0.954299	-0.229451	0.41316	-0.0482243	-0.101736	0.0754524	0.0714466	0.22424	-0.00149737	-0.289006	0.00423784	-0.179104	0.106922	0.323493	0.108727	-0.00570414	-0.190684	-0.193094	-0.128413	-0.0672355	-0.269817	-0.0472022	0.928592	1.8568	0.2797	-0.316768	0.0704033	0.829988	1.91716
0.95	0.0477496	0.0145813	-0.0650998	1.11879	0.952267	-0.228419	0.407469	-0.046441	-0.0915012	0.0511715	0.0770165	0.223725	-0.00155736	-0.309246	0.00343619	-0.183502	0.0983094	0.32609	0.118946	-0.00575314	-0.194772	-0.185793	-0.131084	-0.0680008	-0.270471	-0.053671	0.924465	1.85529	0.287347	-0.320825	0.0814514	0.83552	1.91193
0.96	0.0494061	0.0125909	-0.0647434	1.13045	0.950221	-0.227357	0.403745	-0.0447359	-0.0836204	0.0382825	0.080831	0.216691	-0.00161734	-0.327301	0.00107265	-0.188176	0.0936617	0.328862	0.128964	-0.00580218	-0.198927	-0.177377	-0.133762	-0.0680283	-0.271118	-0.0601021	0.919367	1.85412	0.294844	-0.324027	0.0916413	0.839107	1.90711
0.97	0.0507839	0.0095794	-0.0634687	1.14219	0.948188	-0.226268	0.401978	-0.0428028	-0.0790241	0.0363238	0.0820923	0.20422	-0.00167731	-0.342978	-0.00323774	-0.193162	0.0932392	0.331752	0.13868	-0.00585126	-0.203021	-0.167529	-0.136479	-0.0674434	-0.271789	-0.0664734	0.913451	1.85317	0.301899	-0.326249	0.100692	0.84086	1.90333
0.98	0.0519202	0.00521591	-0.0612163	1.15406	0.946226	-0.225142	0.401806	-0.0402096	-0.0781575	0.0439902	0.0799258	0.187573	-0.00173726	-0.356303	-0.00989918	-0.198473	0.0971022	0.334595	0.147954	-0.00590037	-0.207005	-0.155911	-0.139218	-0.066369	-0.272524	-0.0727325	0.906901	1.85232	0.308212	-0.327397	0.108337	0.840959	1.90117
0.99	0.0529316	-0.000847711	-0.0579794	1.16607	0.944381	-0.223963	0.40256	-0.0364218	-0.0809628	0.0592963	0.0735398	0.16799	-0.0017972	-0.367491	-0.0193178	-0.204086	0.105166	0.3371	0.156568	-0.00594952	-0.210925	-0.142172	-0.141909	-0.0649135	-0.27337	-0.078795	0.899913	1.8515	0.313501	-0.327411	0.114354	0.839636	1.90108
1	0.0539992	-0.00895667	-0.0537982	1.17825	0.942696	-0.222711	0.403393	-0.0308755	-0.0869674	0.0798671	0.0624298	0.146552	-0.00185713	-0.37686	-0.0318588	-0.209916	0.117271	0.33884	0.164207	-0.00599871	-0.21489	-0.125992	-0.14445	-0.0631644	-0.274368	-0.0845497	0.892683	1.85065	0.317519	-0.326272	0.11859	0.837147	1.90331
1.01	0.0553238	-0.0193891	-0.0487455	1.19061	0.941212	-0.221364	0.403442	-0.0230607	-0.0954403	0.103293	0.0465735	0.124122	-0.00191705	-0.384726	-0.0477956	-0.215788	0.133264	0.339245	0.170434	-0.00604793	-0.219041	-0.107136	-0.146723	-0.0611857	-0.27555	-0.0898696	0.885392	1.8497	0.320079	-0.324011	0.120985	0.833757	1.90788
1.02	0.057085	-0.0322941	-0.0429132	1.20317	0.939962	-0.219905	0.401994	-0.0126052	-0.105561	0.127463	0.0265519	0.101353	-0.00197697	-0.391298	-0.0672559	-0.221422	0.153059	0.337588	0.17468	-0.00609719	-0.223494	-0.0855101	-0.14861	-0.0590197	-0.276926	-0.0946272	0.878199	1.84862	0.321059	-0.320705	0.121599	0.829718	1.91457
1.03	0.0593957	-0.0476495	-0.0364046	1.21591	0.93897	-0.218324	0.398607	0.000656524	-0.116554	0.150801	0.00355221	0.0787204	-0.00203688	-0.396591	-0.0901794	-0.226427	0.176682	0.332988	0.176264	-0.0061465	-0.228307	-0.061204	-0.150008	-0.056691	-0.278475	-0.0987103	0.871232	1.84736	0.320414	-0.316481	0.120619	0.825258	1.92293
1.04	0.0622577	-0.0652339	-0.0293356	1.22884	0.938243	-0.216619	0.393162	0.0166578	-0.127765	0.172365	-0.0207605	0.0565535	-0.00209678	-0.400381	-0.116303	-0.230323	0.204284	0.324434	0.174435	-0.00619584	-0.233448	-0.0345021	-0.150829	-0.0542086	-0.280147	-0.102033	0.864585	1.84588	0.318175	-0.311509	0.11836	0.820559	1.93236
1.05	0.0655806	-0.0846417	-0.0218336	1.24192	0.937778	-0.21479	0.385864	0.0351147	-0.138682	0.191799	-0.0444706	0.0350742	-0.00215668	-0.402192	-0.14517	-0.23259	0.236111	0.310837	0.168452	-0.00624524	-0.238771	-0.00586804	-0.151001	-0.0515662	-0.281866	-0.104543	0.858316	1.84416	0.314439	-0.305991	0.115246	0.815753	1.94219
1.06	0.069161	-0.105374	-0.0140608	1.25512	0.937553	-0.212842	0.377168	0.055561	-0.148932	0.209195	-0.0656864	0.0144344	-0.00221658	-0.401344	-0.176165	-0.232723	0.272456	0.291125	0.157683	-0.00629468	-0.244039	0.0240815	-0.150462	-0.0487412	-0.283535	-0.106218	0.852451	1.84217	0.309365	-0.300146	0.111777	0.810916	1.95179
1.07	0.0726998	-0.126869	-0.00621665	1.26839	0.937541	-0.210781	0.367677	0.0774287	-0.158259	0.224895	-0.0828033	-0.00524441	-0.00227646	-0.397031	-0.208573	-0.2303	0.313578	0.26439	0.141713	-0.00634417	-0.248946	0.0546533	-0.14915	-0.045692	-0.285058	-0.107056	0.846989	1.83994	0.303153	-0.294188	0.108483	0.806064	1.96065
1.08	0.0758398	-0.148559	0.00146313	1.28168	0.937704	-0.20861	0.358039	0.100119	-0.166507	0.239313	-0.0946984	-0.0238277	-0.00233635	-0.388438	-0.241631	-0.225029	0.359618	0.230054	0.120442	-0.00639372	-0.253161	0.0851449	-0.146997	-0.0423575	-0.286352	-0.107069	0.841914	1.83749	0.296028	-0.288314	0.105873	0.80117	1.96844
1.09	0.0782116	-0.169916	0.00871554	1.29496	0.938	-0.206333	0.348845	0.12306	-0.173601	0.252785	-0.100832	-0.0411384	-0.00239623	-0.374847	-0.274571	-0.216767	0.41052	0.188064	0.0941513	-0.00644331	-0.256364	0.114899	-0.143925	-0.0386602	-0.287364	-0.106268	0.837205	1.83489	0.288225	-0.282687	0.10439	0.796174	1.97501
1.1	0.0794818	-0.190478	0.015271	1.30818	0.93839	-0.203957	0.340552	0.145735	-0.179536	0.265498	-0.101249	-0.0569509	-0.00245611	-0.355757	-0.306644	-0.205521	0.465972	0.139057	0.0635329	-0.00649295	-0.258302	0.143341	-0.13985	-0.0345125	-0.288074	-0.10466	0.832847	1.83226	0.279968	-0.277421	0.104366	0.791	1.9804
1.11	0.0794055	-0.20986	0.0208845	1.32129	0.938839	-0.201491	0.333428	0.167699	-0.184357	0.277472	-0.096489	-0.071011	-0.00251599	-0.330968	-0.337139	-0.19143	0.525391	0.0844762	0.029673	-0.00654263	-0.258825	0.169998	-0.134698	-0.0298259	-0.288507	-0.102245	0.828841	1.82972	0.271464	-0.272581	0.106002	0.785574	1.98483
1.12	0.0778788	-0.22775	0.0253726	1.33427	0.939323	-0.198952	0.327512	0.188576	-0.188145	0.288589	-0.087441	-0.0830726	-0.00257587	-0.300639	-0.365393	-0.174742	0.58793	0.0265623	-0.0060192	-0.00659236	-0.25793	0.194504	-0.128415	-0.0245201	-0.28872	-0.0990185	0.825203	1.82745	0.262891	-0.268181	0.10936	0.779835	1.98863
1.13	0.0749741	-0.243912	0.0286477	1.34709	0.939833	-0.196365	0.322609	0.208057	-0.190998	0.298647	-0.0751677	-0.0929457	-0.00263574	-0.265304	-0.390816	-0.155792	0.65253	-0.0317826	-0.0419308	-0.00664213	-0.255776	0.216602	-0.12099	-0.0185314	-0.288798	-0.0949704	0.821968	1.82558	0.254393	-0.26419	0.114369	0.77374	1.99219
1.14	0.0709355	-0.258177	0.0307342	1.35976	0.940371	-0.193759	0.318323	0.225897	-0.19301	0.307425	-0.0607487	-0.100545	-0.00269562	-0.225813	-0.412918	-0.134997	0.717998	-0.0872857	-0.076409	-0.00669195	-0.252666	0.236129	-0.112467	-0.0118178	-0.288837	-0.090091	0.819172	1.82425	0.246075	-0.260549	0.120847	0.76727	1.99592
